# xmcd
#
# Track frame offsets:
#	150
#	14147
#	29329
#	42489
#	60523
#	75973
#	90710
#	102471
#	116238
#	130088
#	147436
#	163904
#	176894
#	187982
#	202869
#	217506
#
# Disc length: 3076 seconds
#
# Revision: 1
# Processed by: cddbd v1.5.1PL0 Copyright (c) Steve Scherf et al.
# Submitted via: EasyCDDAExtractor 7.0.4.1
#
DISCID=dd0c0210
DTITLE=Die Cambells - Daar's Iets Innie Water CD2
DYEAR=2004
DGENRE=Pop
TTITLE0=Thank God I'm A Country Boy
TTITLE1=The Gambler
TTITLE2=Green Green Grass Of Home
TTITLE3=Midnight Special
TTITLE4=I'm On My Way
TTITLE5=Never Ending Song Of Love
TTITLE6=Kiss An Angel
TTITLE7=Hou My Bietjie Vas
TTITLE8=Woman, Beautiful Woman
TTITLE9=Lucille
TTITLE10=Baby Blue
TTITLE11=Gentle On My Mind
TTITLE12=Massachuttes
TTITLE13=How Do You Like Me Now
TTITLE14=Help Me Make It Through The Night
TTITLE15=Daars Niks Soos Ware Liefde
EXTD=
EXTT0=
EXTT1=
EXTT2=
EXTT3=
EXTT4=
EXTT5=
EXTT6=
EXTT7=
EXTT8=
EXTT9=
EXTT10=
EXTT11=
EXTT12=
EXTT13=
EXTT14=
EXTT15=
PLAYORDER=
